<svg xmlns="http://www.w3.org/2000/svg" width="256" height="256"><path fill-opacity=".016" d="M0 128.004v128.004l128.25-.254 128.25-.254.254-127.75L257.008 0H0v128.004m.485.496c0 70.4.119 99.053.265 63.672.146-35.38.146-92.98 0-128C.604 29.153.485 58.1.485 128.5" fill="#1976D2" fill-rule="evenodd"/><path fill-opacity=".159" d="M26.3 1.852C16.226 5.352 7.94 12.913 3.125 23L.5 28.5v199l2.68 5.718c3.742 7.985 10.765 15.137 18.694 19.041l6.584 3.241H227.5l5.675-2.66c6.283-2.946 13.703-9.288 16.88-14.429 1.138-1.841 3.166-6.147 4.507-9.569l2.438-6.221V126.31c0-63.54-.34-96.31-1-96.31-.55 0-1-.603-1-1.34 0-.737-1.358-4.058-3.018-7.38-3.679-7.363-11.074-14.496-18.764-18.1L227.5.5l-98-.227C37.238.059 31.196.151 26.3 1.852M.481 128c0 53.625.121 75.563.269 48.75.148-26.813.148-70.688 0-97.5C.602 52.437.481 74.375.481 128m65.974-85.545c-2.666 2.665-3.377 8.954-1.425 12.6 1.645 3.075 5.951 4.687 10.408 3.897 5.176-.918 7.562-3.95 7.562-9.608C83 43.14 79.807 40 73.5 40c-3.541 0-5.152.561-7.045 2.455m4.591 4.989c-2.701 3.255 1.769 7.17 4.765 4.174 1.273-1.274 1.404-2.055.565-3.387-1.46-2.318-3.775-2.66-5.33-.787m14.203 16.52c-3.168 4.017-7.117 11.942-7.866 15.786-.617 3.17-.547 3.25 2.881 3.25 3.197 0 3.57-.303 4.145-3.365.347-1.851 2.403-5.84 4.569-8.865l3.939-5.5-2.273-2.135c-1.25-1.174-2.469-2.11-2.708-2.08-.24.031-1.449 1.34-2.687 2.909m-42.794 2.491C40.561 68.348 40 69.959 40 73.5c0 6.307 3.14 9.5 9.344 9.5 5.658 0 8.69-2.386 9.608-7.562.79-4.457-.822-8.763-3.897-10.408-3.646-1.952-9.935-1.241-12.6 1.425m4.591 4.989c-2.701 3.255 1.769 7.17 4.765 4.174 1.273-1.274 1.404-2.055.565-3.387-1.46-2.318-3.775-2.66-5.33-.787M195 90.098c-16.523 7.54-29.226 13.929-30.228 15.203-1.085 1.381-1.736 3.996-1.75 7.028l-.022 4.83-3.25-.83c-1.787-.456-10-.783-18.25-.726-16.487.113-25.479 1.745-48.909 8.876-7.28 2.215-12.147 3.24-12.52 2.635-1.724-2.788.074-11.8 3.408-17.08l2.399-3.8-2.27-2.133c-2.176-2.044-2.337-2.058-3.892-.339-.893.986-2.808 4.382-4.258 7.548-2.213 4.836-2.583 6.88-2.309 12.794l.325 7.04-7.487 3.305c-6.924 3.058-7.539 3.17-8.178 1.501-1.464-3.825-1.979-9.513-2.742-30.277-.037-1.005-1.382-3.142-2.99-4.75C49.686 98.532 48.309 98 44.511 98 34.723 98 33 101.124 33 118.869 33 133.291 32.663 135 29.816 135c-1.083 0-3.341 1.371-5.017 3.047-2.934 2.934-3.022 3.277-2.38 9.25.367 3.412 1.144 7.7 1.727 9.529.902 2.833.766 3.649-.918 5.5-5.337 5.866-5.452 9.958-.555 19.747 11.416 22.82 41.022 36.484 71.237 32.879 35.495-4.235 65.161-26.942 74.113-56.726 1.88-6.256 2.118-8.914 1.701-19-.266-6.449-.787-12.626-1.156-13.726-.618-1.842-.293-1.974 4.132-1.67 4.428.304 6.995-.736 32.802-13.289 15.399-7.49 28.775-14.614 29.726-15.83 5.103-6.531-1.011-17.848-9.543-17.664-1.202.026-15.01 5.899-30.685 13.051M26 87c0 2.667.333 3 3 3s3-.333 3-3-.333-3-3-3-3 .333-3 3m196-2.002c-.825.532-10.097 4.85-20.606 9.597l-19.105 8.629 2.105 4.138c1.159 2.276 2.163 4.27 2.232 4.431.07.161 9.857-4.418 21.75-10.176C227.529 92.344 230 90.877 230 88.774c0-4.204-4.236-6.203-8-3.776M64 90.5c0 3.222.238 3.5 3 3.5s3-.278 3-3.5-.238-3.5-3-3.5-3 .278-3 3.5m-23.345 15.329c-1.38 1.524-1.655 4.239-1.655 16.325 0 13.762-.114 14.601-2.25 16.54-1.237 1.124-3.548 2.351-5.134 2.727-2.846.675-2.877.76-2.35 6.382 1.273 13.564 8.702 24.625 18.491 27.532 4.467 1.327 5.931 1.29 15.233-.38 14.165-2.545 14.105-2.505 8.913-5.82-14.23-9.085-22.472-27.526-22.844-51.115-.126-8.036-.539-10.892-1.767-12.25-2.058-2.274-4.546-2.252-6.637.059m129.328 4.203c-.978 1.827-.848 1.972 1.289 1.436 3.063-.769 5.154 1.599 4.178 4.734-.71 2.28-.699 2.283 1.417.393 2.356-2.104 2.789-5.539.933-7.395-1.948-1.948-6.594-1.454-7.817.832M60 121c0 2.667.333 3 3 3s3-.333 3-3-.333-3-3-3-3 .333-3 3m69 1.449c-13.782 2.194-33.52 7.363-42.595 11.155-3.287 1.374-3.365 1.527-1.916 3.739 1.401 2.139 1.337 2.471-.873 4.548l-2.386 2.241-2.183-3.066C77.846 139.38 76.261 138 75.525 138 73.174 138 61 143.874 61 145.008c0 .6.737 2.531 1.637 4.292 4.339 8.482 12.142 15.137 21.323 18.187 4.754 1.579 4.773 1.576 15.65-2.329 15.148-5.438 22.415-8.816 25.733-11.962 3.685-3.494 7.378-10.795 8.789-17.378C135.595 129 139.424 125 144.489 125c5.059 0 7.39 1.512 9.461 6.136l1.779 3.975 2.636-3.132c3.469-4.123 3.428-7.287-.115-8.944-3.963-1.853-19.358-2.161-29.25-.586m12.631 10.734c-.197.724-.919 3.567-1.606 6.317-.686 2.75-1.487 5.835-1.78 6.856-.474 1.647-.095 1.58 3.361-.598 4.581-2.887 6.514-6.108 6.154-10.258-.213-2.453-.763-3.058-3.016-3.317-1.655-.19-2.898.209-3.113 1m18.856 6.83c-3.777 3.943-15.08 11.678-24.487 16.758-29.071 15.699-75.073 28.404-97.709 26.986l-7.21-.451 1.98 2.78c5.587 7.846 16.977 15.436 29.439 19.617 7.174 2.407 9.446 2.683 22 2.672 12.332-.01 15.048-.332 22.797-2.702 32.081-9.814 54.309-33.781 56.393-60.806.333-4.327.399-7.867.145-7.867-.253 0-1.76 1.356-3.348 3.013M81 152c0 2.667.333 3 3 3s3-.333 3-3-.333-3-3-3-3 .333-3 3m-38 7.935C43 163.252 51.588 175 54.012 175c.417 0 1.528-1.176 2.47-2.613 1.697-2.589 1.675-2.652-2.385-6.788-2.253-2.296-4.097-4.72-4.097-5.387 0-.718-1.425-1.212-3.5-1.212-1.925 0-3.5.421-3.5.935m-16.616 9.507c-1.143 2.979.187 5.072 4.025 6.33 2.134.699 4.063 1.089 4.286.866.223-.223-.967-1.908-2.645-3.744-1.677-1.837-3.05-3.689-3.05-4.117 0-1.355-2.04-.837-2.616.665" fill="#1976D2" fill-rule="evenodd"/><path fill-opacity=".346" d="M28.776 1.467C14.964 5.305 4.018 16.96 1.041 31 .186 35.031-.042 61.874.187 131.5l.313 95 3.174 6.701c4.039 8.525 10.6 15.086 19.125 19.125L29.5 255.5h197l6.547-3.103c11.505-5.451 16.889-11.749 21.636-25.304l2.308-6.593.005-94.25C256.999 64.08 256.66 32 256 32c-.55 0-1-.788-1.001-1.75-.001-3.543-6.018-14.322-10.491-18.795-2.534-2.533-7.622-6.035-11.307-7.781L226.5.5 130 .327C52.989.189 32.546.419 28.776 1.467M.48 128c0 52.525.121 74.012.27 47.75.148-26.263.148-69.238 0-95.5C.601 53.987.48 75.475.48 128m66.048-85.728c-4.865 4.865-4.907 9.549-.128 14.328s9.463 4.737 14.328-.128c3.189-3.189 3.475-3.924 2.975-7.653-.72-5.363-4.159-8.802-9.522-9.522-3.729-.5-4.464-.214-7.653 2.975m4.121 6.199c-.73 1.905 1.975 4.61 3.88 3.88.809-.311 1.471-1.642 1.471-2.958C76 47.536 75.464 47 73.607 47c-1.316 0-2.647.662-2.958 1.471m14.029 15.885c-3.954 5.184-6.811 11.215-7.403 15.629-.538 4.01-.534 4.015 2.886 4.015 3.199 0 3.501-.288 4.594-4.374.644-2.406 2.795-6.504 4.782-9.107l3.612-4.731-2.249-2.394C89.663 62.077 88.333 61 87.944 61c-.388 0-1.858 1.51-3.266 3.356m-42.406 2.172c-3.189 3.189-3.475 3.924-2.975 7.653.72 5.363 4.159 8.802 9.522 9.522 3.729.5 4.464.214 7.653-2.975 4.865-4.865 4.907-9.549.128-14.328s-9.463-4.737-14.328.128m5.978 4.134c-.687.278-1.25 1.592-1.25 2.921 0 1.883.529 2.417 2.393 2.417 2.961 0 4.041-2.423 1.993-4.471-.841-.841-1.609-1.493-1.707-1.45-.099.043-.741.306-1.429.583M219 78.819c-1.925.956-8.675 4.079-15 6.938-36.688 16.588-37.462 16.983-39.75 20.288-1.344 1.942-2.25 4.743-2.25 6.956v3.706l-5.218-1.353c-12.568-3.261-38.669.405-65.526 9.203-5.781 1.894-10.731 3.443-11 3.443-.269 0-.306-2.873-.083-6.383.311-4.876 1.07-7.386 3.216-10.629l2.809-4.244-2.654-2.622c-2.629-2.596-2.67-2.602-4.209-.622-4.235 5.452-6.315 11.95-6.325 19.763l-.01 7.762-5.401 2.389c-8.984 3.973-9.273 3.998-10.111.867-.409-1.53-1.043-8.856-1.408-16.281-.734-14.914-1.478-17.012-6.953-19.61-4.64-2.202-9.755-1.223-13.577 2.597l-3.05 3.048-.211 14.161c-.116 7.788-.44 14.755-.719 15.482-.279.727-1.442 1.322-2.584 1.322-1.142 0-3.181 1.105-4.531 2.455-2.811 2.81-3.19 7.553-1.34 16.762 1.055 5.257.976 5.755-1.5 9.399-5.6 8.242-1.641 19.589 11.3 32.384 8.747 8.649 15.896 12.778 28.612 16.522 30.251 8.907 64.725-.466 88.074-23.945 7.604-7.647 9.87-10.709 13.772-18.615 7.134-14.451 9.042-26.512 6.279-39.696l-1.307-6.234 3.675.587c3.96.633 1.265 1.784 43.087-18.396 11.252-5.429 19.257-9.905 20.25-11.323.904-1.29 1.643-4.254 1.643-6.588 0-3.319-.675-5.011-3.104-7.777-2.634-3-3.731-3.529-7.25-3.495-2.28.022-5.721.822-7.646 1.779M26 87.563c0 3.418.133 3.551 3.25 3.25 2.858-.275 3.288-.705 3.563-3.563.301-3.117.168-3.25-3.25-3.25-3.417 0-3.563.146-3.563 3.563m189.5 1.053c-5.5 2.522-14.933 6.81-20.962 9.529-6.028 2.72-11.155 5.139-11.392 5.376-.237.237.114 1.088.781 1.891.666.803 1.528 2.643 1.915 4.09l.703 2.629 21.728-10.783C226.168 92.467 230 90.198 230 88.482c0-2.237-1.742-4.492-3.45-4.466-.578.009-5.55 2.079-11.05 4.6M63 90.5c0 3.333.167 3.5 3.5 3.5s3.5-.167 3.5-3.5-.167-3.5-3.5-3.5-3.5.167-3.5 3.5m-23.025 17.065c-.536 1.411-.975 8.511-.975 15.778 0 15.032-.768 17.148-6.628 18.247l-3.57.67.7 5.602c.998 7.985 4.175 15.774 8.294 20.334 4.15 4.594 7.262 6.378 12.739 7.301l3.965.669-3.689-3.333c-4.119-3.722-7.802-9.421-7.807-12.083-.003-1.334.828-1.75 3.496-1.75 1.925 0 3.5.46 3.5 1.022 0 .563 1.854 3.034 4.12 5.493 4.069 4.414 4.099 4.501 2.42 7.064-.935 1.427-1.524 2.771-1.308 2.986.504.505 10.263-1.083 15.766-2.564l4.258-1.147-5.013-3.377c-13.455-9.06-20.777-26.291-21.662-50.977-.204-5.693-.67-10.835-1.035-11.426-.365-.591-1.999-1.074-3.63-1.074-2.263 0-3.196.607-3.941 2.565m131.085 1.863c-.973 1.172-.682 1.485 1.628 1.75 2.335.267 2.805.789 2.773 3.072-.044 3.012.51 3.379 2.339 1.55 1.661-1.661 1.5-4.357-.371-6.229-1.958-1.957-4.81-2.022-6.369-.143M60 121.563c0 3.418.133 3.551 3.25 3.25 2.858-.275 3.288-.705 3.563-3.563.301-3.117.168-3.25-3.25-3.25-3.417 0-3.563.146-3.563 3.563m75.136.684c-10.229.877-25.209 4.152-40.346 8.82-9.94 3.065-11.855 4.268-9.903 6.22 1.766 1.766 1.313 3.352-1.483 5.184-2.772 1.816-2.695 1.861-6.569-3.837-.591-.868-15.835 4.947-15.835 6.041 0 1.657 4.885 9.333 8.321 13.075 4.322 4.707 14.329 10.248 18.511 10.249 5.072.002 33.274-10.917 36.952-14.307 2.935-2.704 9.216-15.229 9.216-18.376 0-3.211 2.554-8.007 4.945-9.286 1.058-.567 3.788-1.03 6.066-1.03 3.246 0 4.776.633 7.066 2.923 1.608 1.608 2.923 3.913 2.923 5.123 0 1.882.225 2.012 1.566.899 1.753-1.455 4.434-6.259 4.434-7.946 0-1.612-5.76-3.693-11.5-4.154-2.75-.221-9.214-.04-14.364.402m6.962 12.003c-1.543 4.041-3.924 12.75-3.486 12.75.235 0 2.163-1.096 4.284-2.435 3.96-2.499 5.926-7.258 4.517-10.931-.918-2.393-4.316-1.999-5.315.616m17.402 7.31c-14.07 12.256-42.253 26-70.557 34.409-16.159 4.8-29.397 7.173-43.943 7.878l-13.5.653 6.132 6.048c22.827 22.514 62.984 23.967 94.19 3.409 18.632-12.275 29.584-29.256 31.093-48.207.339-4.262.609-7.733.601-7.712-.009.02-1.816 1.605-4.016 3.522M80 152c0 2.762.278 3 3.5 3s3.5-.238 3.5-3-.278-3-3.5-3-3.5.238-3.5 3m-53.56 18.188c-.801 2.524 2.458 5.812 5.76 5.812 1.838 0 1.795-.217-.611-3.077-1.424-1.692-2.589-3.492-2.589-4 0-1.812-1.878-.884-2.56 1.265" fill="#1976D2" fill-rule="evenodd"/><path fill-opacity=".167" d="M31 1.367C15.684 4.708 3.97 16.891 1.089 32.474-.423 40.653-.424 215.341 1.088 223.52c2.982 16.13 15.327 28.591 31.239 31.533 3.477.642 39.368.905 99.309.727l93.864-.28 5.785-2.335c11.323-4.57 20.82-15.957 23.907-28.665 1.463-6.023 2.383-189.5.95-189.5-.483 0-1.113-1.748-1.4-3.884-1.859-13.865-15.677-27.154-31.222-30.028C214.859-.513 38.446-.257 31 1.367M.48 128c0 50.875.121 71.687.27 46.25.148-25.438.148-67.063 0-92.5C.601 56.312.48 77.125.48 128m65.443-86.077C63.53 44.316 63 45.69 63 49.5s.53 5.184 2.923 7.577S69.69 60 73.5 60c6.471 0 10.51-3.922 10.478-10.173-.05-9.735-11.3-14.659-18.055-7.904m5.778 5.709c-.385.386-.701 1.526-.701 2.535 0 1.302.745 1.833 2.57 1.833 2.089 0 2.509-.418 2.25-2.24-.317-2.217-2.765-3.482-4.119-2.128m12.443 16.913c-3.68 4.854-8.072 14.742-7.693 17.322.174 1.183 1.289 1.633 4.045 1.633 3.203 0 3.86-.364 4.156-2.303.449-2.942 2.894-7.775 6.095-12.049l2.51-3.352-2.878-2.838-2.879-2.839-3.356 4.426m-42.221 1.378c-6.755 6.755-1.831 18.005 7.904 18.055C56.078 84.01 60 79.971 60 73.5c0-3.81-.53-5.184-2.923-7.577S53.31 63 49.5 63s-5.184.53-7.577 2.923m5.457 6.529c-.775 2.021.378 3.548 2.679 3.548C51.463 76 52 75.308 52 73.5c0-1.846-.531-2.5-2.031-2.5-1.118 0-2.283.653-2.589 1.452m148.355 16.674C164.22 103.484 162 105.015 162 112.398v4.366l-3.67-1.262c-6.049-2.079-21.964-1.84-34.979.525-11.366 2.066-32.43 7.726-39.059 10.496-3.152 1.317-3.305 1.274-3.9-1.097-.842-3.354 1.21-11.14 4.099-15.553l2.375-3.627-2.821-2.703-2.821-2.703-2.581 3.384c-4.454 5.839-6.003 10.691-6.062 18.982l-.055 7.705-6.918 3.056c-3.805 1.681-7.005 2.938-7.111 2.794-.842-1.144-2.497-16.223-2.497-22.753 0-9.282-1.502-13.182-5.967-15.491-5.311-2.746-9.787-1.998-14.151 2.365L32 104.765V133.962l-2.75.65c-3.76.889-7.017 4.052-7.788 7.561-.353 1.607.112 6.31 1.033 10.451 1.474 6.624 1.499 7.731.211 9.203-2.292 2.618-4.706 7.86-4.706 10.221 0 1.18 1.894 5.788 4.21 10.238 7.571 14.554 19.003 23.799 36.844 29.796 23.773 7.992 55.09 3.356 76.946-11.392 16.921-11.417 28.94-27.635 33.461-45.15 1.904-7.374 1.993-20.714.179-26.743l-1.361-4.52 4.15.468c3.603.406 6.184-.512 19.61-6.976C230.483 99.26 235.175 96.7 236.76 93.376c3.174-6.655-1.192-14.992-8.556-16.339-3.998-.731-5.811-.056-32.469 12.089M25.714 83.619c-.393.393-.714 2.214-.714 4.048 0 3.23.125 3.333 4.06 3.333h4.061l-.311-3.75c-.278-3.363-.623-3.781-3.346-4.047-1.67-.164-3.357.024-3.75.416m194.201 3.356c-3.528 1.532-13.264 5.921-21.636 9.754-14.397 6.591-15.143 7.071-13.782 8.869.792 1.046 1.454 2.689 1.471 3.652.018.963.422 1.75.898 1.75 1.428 0 42.057-20.066 42.684-21.08.826-1.337-.389-4.644-1.923-5.233-.713-.274-4.184.756-7.712 2.288M63 90.5c0 3.333.167 3.5 3.5 3.5s3.5-.167 3.5-3.5-.167-3.5-3.5-3.5-3.5.167-3.5 3.5m-21.8 15.7c-.821.821-1.2 5.694-1.2 15.423 0 13.843-.069 14.306-2.589 17.3-1.59 1.89-3.531 3.077-5.031 3.077-3.379 0-3.729 1.685-1.946 9.371 3.399 14.656 9.521 21.884 20.284 23.949l3.218.617-4.128-3.718c-4.192-3.776-8.415-11.429-7.301-13.231.336-.543 2.076-.988 3.867-.988 2.724 0 3.523.56 4.894 3.435.901 1.89 2.998 4.441 4.661 5.671l3.023 2.235-2.129 3.446c-2.016 3.261-2.028 3.415-.226 2.886 1.047-.307 4.828-1.098 8.403-1.756 9.294-1.711 9.879-2.211 5.653-4.823-5.328-3.292-12.282-11.529-15.58-18.453-4.051-8.508-6.115-18.143-6.775-31.641-.31-6.325-1.009-12.062-1.553-12.75-1.254-1.584-3.986-1.609-5.545-.05m130.241 3.382c-1.691 1.378-1.713 1.509-.168 1.022 2.333-.736 5.859 2.79 5.123 5.123-.513 1.627-.435 1.621.954-.074 1.488-1.817 1.28-3.938-.628-6.403-1.298-1.677-2.942-1.574-5.281.332m-112.027 8.781c-.315.821-.424 2.537-.243 3.814.269 1.898 1.027 2.38 4.143 2.637l3.814.314-.314-3.814c-.288-3.497-.585-3.84-3.571-4.128-2.184-.21-3.445.177-3.829 1.177M124 124.015c-10.294 1.969-30.229 7.306-36.235 9.701-3.526 1.406-3.653 1.606-2.265 3.588 1.33 1.899 1.265 2.318-.689 4.397-2.582 2.749-4.385 2.921-5.742.549-2.648-4.626-2.426-4.608-10.515-.87l-7.714 3.564 2.322 4.13c5.259 9.357 12.617 15.445 21.583 17.858 3.86 1.039 5.128.835 14-2.254 5.365-1.868 13.23-4.847 17.477-6.619 7.041-2.938 8.069-3.742 11.665-9.128 2.522-3.776 4.493-8.314 5.467-12.585 1.823-7.991 4.636-11.267 10.333-12.031 3.454-.463 4.478-.109 7.591 2.624 2.114 1.857 3.727 4.274 3.91 5.86.312 2.699.314 2.698 3.062-1.281 1.512-2.19 2.75-4.504 2.75-5.142 0-4.37-19.868-5.638-37-2.361m18.568 9.161c-1.723 5.354-3.402 12.324-3.052 12.673.729.73 5.364-2.756 6.509-4.895 1.618-3.024.84-8.369-1.278-8.77-.964-.182-1.945.264-2.179.992m18.034 7.698c-3.793 4.217-19.906 14.385-31.861 20.107-29.656 14.192-57.2 21.782-82.565 22.752l-14.324.548 4.824 4.983c6.78 7.004 15.322 12.318 24.746 15.395 10.392 3.394 29.151 4.187 40.078 1.695 20.223-4.613 36.139-14.166 47.917-28.761 8.298-10.284 14.23-25.735 13.422-34.96l-.339-3.868-1.898 2.109M80 152c0 3.905.083 4 3.5 4s3.5-.095 3.5-4-.083-4-3.5-4-3.5.095-3.5 4m-53.393 18.582c-.334.87-.607 1.793-.607 2.051 0 .593 7.108 3.592 7.525 3.175.345-.345-5.261-6.808-5.904-6.808-.224 0-.68.712-1.014 1.582" fill="#1976D2" fill-rule="evenodd"/></svg>